<svg xmlns="http://www.w3.org/2000/svg" width="1200" height="400" viewBox="0 0 1200 400" font-family="Menlo, monospace">
  <rect width="1200" height="400" fill="#0B1220"/>
  <g opacity="0.9">
    <rect x="820" y="120" width="300" height="40" rx="7" fill="#0E1A2E" stroke="#1E3A5F"/>
    <path d="M840 137 L900 137" stroke="#334155" stroke-width="2"/><path d="M1088 132 l8 8 l8 -8" stroke="#334155" stroke-width="2" fill="none"/>
    <rect x="820" y="168" width="300" height="90" rx="7" fill="#0E2438" stroke="#38BDF8"/>
    <path d="M840 190 L920 190" stroke="#38BDF8" stroke-width="2"/><path d="M1088 194 l8 -8 l8 8" stroke="#38BDF8" stroke-width="2" fill="none"/>
    <path d="M840 216 L1060 216 M840 234 L1000 234" stroke="#38BDF8" stroke-width="1.6" opacity="0.5"/>
    <rect x="820" y="266" width="300" height="40" rx="7" fill="#0E1A2E" stroke="#1E3A5F"/>
    <path d="M840 283 L888 283" stroke="#334155" stroke-width="2"/><path d="M1088 278 l8 8 l8 -8" stroke="#334155" stroke-width="2" fill="none"/>
  </g>
  <text x="64" y="200" font-size="52" font-weight="bold" fill="#E2E8F0">expandable_plus</text>
  <text x="66" y="244" font-size="23" fill="#94A3B8">Accordion panels, one open at a time</text>
</svg>
